<svg width="20" height="20" viewBox="0 0 20 20" fill="none" xmlns="http://www.w3.org/2000/svg">
<path d="M9.99997 8.33337C9.55794 8.33337 9.13402 8.50897 8.82146 8.82153C8.5089 9.13409 8.33331 9.55801 8.33331 10C8.33331 10.85 8.24997 12.0917 8.11664 13.3334" stroke="#0A0A0A" stroke-width="1.66667" stroke-linecap="round" stroke-linejoin="round"/>
<path d="M11.6666 10.9333C11.6666 12.9167 11.6666 16.25 10.8333 18.3333" stroke="#0A0A0A" stroke-width="1.66667" stroke-linecap="round" stroke-linejoin="round"/>
<path d="M14.4083 17.5167C14.5083 17.0167 14.7667 15.6 14.825 15" stroke="#0A0A0A" stroke-width="1.66667" stroke-linecap="round" stroke-linejoin="round"/>
<path d="M1.66669 9.99996C1.66669 8.25094 2.217 6.54625 3.23967 5.12737C4.26234 3.70849 5.70552 2.64735 7.36479 2.09427C9.02406 1.54118 10.8153 1.52418 12.4848 2.04568C14.1542 2.56718 15.6173 3.60074 16.6667 4.99996" stroke="#0A0A0A" stroke-width="1.66667" stroke-linecap="round" stroke-linejoin="round"/>
<path d="M1.66669 13.3334H1.67502" stroke="#0A0A0A" stroke-width="1.66667" stroke-linecap="round" stroke-linejoin="round"/>
<path d="M18.1667 13.3334C18.3334 11.6667 18.2759 8.87171 18.1667 8.33337" stroke="#0A0A0A" stroke-width="1.66667" stroke-linecap="round" stroke-linejoin="round"/>
<path d="M4.16669 16.25C4.58335 15 5.00002 12.5 5.00002 10C4.99918 9.43243 5.09499 8.86882 5.28335 8.33337" stroke="#0A0A0A" stroke-width="1.66667" stroke-linecap="round" stroke-linejoin="round"/>
<path d="M7.20831 18.3333C7.38331 17.7833 7.58331 17.2333 7.68331 16.6666" stroke="#0A0A0A" stroke-width="1.66667" stroke-linecap="round" stroke-linejoin="round"/>
<path d="M7.5 5.6667C8.26033 5.22772 9.12285 4.99669 10.0008 4.99683C10.8788 4.99697 11.7412 5.22828 12.5014 5.6675C13.2616 6.10672 13.8927 6.73837 14.3313 7.49891C14.7699 8.25945 15.0006 9.12208 15 10V11.6667" stroke="#0A0A0A" stroke-width="1.66667" stroke-linecap="round" stroke-linejoin="round"/>
</svg>
