<svg width="24" height="24" viewBox="0 0 24 24" fill="none" xmlns="http://www.w3.org/2000/svg">
<path d="M21 11.9999C21.552 11.9999 22.005 11.5509 21.95 11.0019C21.7195 8.70609 20.7021 6.56062 19.0703 4.92924C17.4386 3.29786 15.2929 2.28096 12.997 2.05092C12.447 1.99592 11.999 2.44892 11.999 3.00092V11.0009C11.999 11.2661 12.1044 11.5205 12.2919 11.708C12.4795 11.8956 12.7338 12.0009 12.999 12.0009L21 11.9999Z" stroke="white" stroke-width="2" stroke-linecap="round" stroke-linejoin="round"/>
<path d="M21.21 15.8901C20.5738 17.3946 19.5788 18.7203 18.3119 19.7514C17.0449 20.7825 15.5447 21.4875 13.9424 21.8049C12.3401 22.1222 10.6844 22.0422 9.12012 21.5719C7.55585 21.1015 6.1306 20.2551 4.969 19.1067C3.80739 17.9583 2.94479 16.5428 2.45661 14.984C1.96843 13.4252 1.86954 11.7706 2.16857 10.1647C2.46761 8.55886 3.15547 7.05071 4.17202 5.77211C5.18857 4.49351 6.50286 3.4834 7.99998 2.83008" stroke="white" stroke-width="2" stroke-linecap="round" stroke-linejoin="round"/>
</svg>
