<svg width="56" height="56" viewBox="0 0 56 56" fill="none" xmlns="http://www.w3.org/2000/svg">
<rect width="56" height="56" rx="14" fill="url(#paint0_linear_188_107)"/>
<path d="M38.5 28.0002C39.144 28.0002 39.6725 27.4763 39.6083 26.8358C39.3394 24.1573 38.1524 21.6543 36.2487 19.751C34.345 17.8477 31.8417 16.6614 29.1632 16.393C28.5215 16.3288 27.9988 16.8573 27.9988 17.5013V26.8347C27.9988 27.1441 28.1218 27.4408 28.3405 27.6596C28.5593 27.8784 28.8561 28.0013 29.1655 28.0013L38.5 28.0002Z" stroke="white" stroke-width="2.33333" stroke-linecap="round" stroke-linejoin="round"/>
<path d="M38.745 32.5384C38.0028 34.2937 36.8419 35.8403 35.3639 37.0433C33.8858 38.2462 32.1356 39.0688 30.2662 39.439C28.3968 39.8092 26.4652 39.7159 24.6402 39.1672C22.8152 38.6184 21.1524 37.631 19.7972 36.2912C18.442 34.9514 17.4356 33.3 16.8661 31.4814C16.2966 29.6628 16.1812 27.7323 16.5301 25.8588C16.8789 23.9853 17.6814 22.2258 18.8674 20.7341C20.0534 19.2424 21.5867 18.064 23.3334 17.3018" stroke="white" stroke-width="2.33333" stroke-linecap="round" stroke-linejoin="round"/>
<defs>
<linearGradient id="paint0_linear_188_107" x1="0" y1="0" x2="56" y2="56" gradientUnits="userSpaceOnUse">
<stop stop-color="#AD46FF"/>
<stop offset="1" stop-color="#F6339A"/>
</linearGradient>
</defs>
</svg>
