<svg width="20" height="20" viewBox="0 0 20 20" fill="none" xmlns="http://www.w3.org/2000/svg">
<path d="M10 1.66663C5.39752 1.66663 1.66669 5.39746 1.66669 9.99996C1.66669 13.6833 4.05419 16.8083 7.36585 17.9083C7.78252 17.985 7.93419 17.7275 7.93419 17.5066C7.93419 17.3091 7.92752 16.785 7.92335 16.09C5.60502 16.5925 5.11585 14.9733 5.11585 14.9733C4.73752 14.01 4.19085 13.7541 4.19085 13.7541C3.43419 13.2375 4.24835 13.2475 4.24835 13.2475C5.08419 13.3058 5.52419 14.1058 5.52419 14.1058C6.26752 15.38 7.47502 15.0116 7.94919 14.7983C8.02585 14.26 8.24085 13.8933 8.47919 13.685C6.62919 13.4741 4.68335 12.76 4.68335 9.56579C4.68335 8.65663 5.00835 7.91246 5.54085 7.32996C5.45502 7.11913 5.16919 6.27163 5.62252 5.12413C5.62252 5.12413 6.32252 4.89996 7.91419 5.97829C8.59398 5.79274 9.29536 5.69803 10 5.69663C10.7084 5.69996 11.4209 5.79163 12.0867 5.97663C13.6775 4.89829 14.3759 5.12246 14.3759 5.12246C14.8309 6.26996 14.545 7.11746 14.4592 7.32829C14.9925 7.91079 15.3159 8.65496 15.3159 9.56413C15.3159 12.7658 13.3667 13.47 11.5109 13.6766C11.81 13.9341 12.0759 14.4425 12.0759 15.22C12.0759 16.3333 12.0659 17.2325 12.0659 17.5058C12.0659 17.7283 12.2159 17.9875 12.6392 17.9058C15.9484 16.8058 18.3334 13.6816 18.3334 9.99996C18.3334 5.39746 14.6025 1.66663 10 1.66663Z" fill="#0A0A0A"/>
</svg>
