<?xml version="1.0" encoding="UTF-8"?>
<svg version="1.1" xmlns="http://www.w3.org/2000/svg" width="512" height="512">
<path d="M0 0 C0.87641647 -0.0066568 1.75283295 -0.0133136 2.6558075 -0.02017212 C4.50220659 -0.03025259 6.34864178 -0.03499057 8.19506836 -0.03466797 C10.99329841 -0.03903376 13.7899397 -0.07538131 16.58789062 -0.11328125 C36.04226572 -0.23953922 36.04226572 -0.23953922 44.35546875 6.484375 C49.93855911 13.22666632 51.78245957 17.49160016 51.69921875 26.3359375 C79.73516145 25.76685534 104.4922176 22.59147894 130.2578125 11.05200195 C137.25461929 7.9398161 143.75514159 6.05052683 151.51171875 6.0234375 C152.61128906 6.00667969 153.71085938 5.98992187 154.84375 5.97265625 C166.16098945 7.03902228 176.16572512 11.95320594 186.38671875 16.5859375 C187.98232694 17.30223207 189.57811458 18.01812703 191.17407227 18.73364258 C202.86100115 23.98829036 214.47879161 29.38882273 226.05541992 34.88183594 C232.61726844 37.99011513 239.20027718 41.02309259 245.859375 43.91796875 C246.52303574 44.20814377 247.18669647 44.49831879 247.87046814 44.79728699 C251.01140493 46.17019051 254.1560846 47.52881036 257.31420898 48.86206055 C268.10492723 53.56047858 274.63324353 58.59509581 279.69921875 69.3359375 C280.28896484 68.98104248 280.87871094 68.62614746 281.48632812 68.26049805 C295.84287484 59.62490907 310.22350903 51.03098675 324.63696289 42.49072266 C325.98975102 41.68913592 327.34253423 40.88754088 328.6953125 40.0859375 C329.69447441 39.49394058 329.69447441 39.49394058 330.71382141 38.88998413 C334.65823914 36.55130604 338.59672497 34.2030391 342.52966309 31.84510803 C344.98451665 30.37369642 347.44153126 28.90591583 349.89874268 27.43844604 C351.57961914 26.43260603 353.25739635 25.42159237 354.93505859 24.41040039 C367.09530438 17.15576265 377.81978249 12.05135504 392.2578125 15.55078125 C404.22330099 19.39888235 410.73861457 25.82752265 416.53515625 36.78515625 C420.19109058 44.79631435 419.93139389 55.3796097 417.828125 63.83984375 C412.78358899 76.79024275 403.3290485 83.06076105 392.25634766 90.59082031 C388.58923317 93.09344914 384.94963543 95.63501256 381.30786133 98.17431641 C378.36495667 100.22611003 375.41909589 102.27359924 372.47265625 104.3203125 C364.6850927 109.73346064 356.9177077 115.17532941 349.15087891 120.61816406 C344.16587619 124.11094231 339.17866494 127.6005666 334.19189453 131.09082031 C329.24369818 134.55426833 324.29642631 138.01902814 319.35058594 141.48583984 C317.70774515 142.63608885 316.06386327 143.78485233 314.41894531 144.93212891 C309.88974308 148.09197585 305.37994244 151.27587135 300.890625 154.4921875 C278.17784468 170.6849188 257.04021856 181.93964443 228.29278564 178.00671387 C222.57734561 176.97716769 216.9890433 175.47597015 211.38671875 173.9609375 C209.50925011 173.47159175 207.63147092 172.9834363 205.75341797 172.49633789 C179.67877436 165.66540581 153.79915249 158.07518002 127.91522217 150.55944824 C123.60579701 149.30838906 119.29541968 148.06063161 114.98486328 146.81347656 C101.32857125 142.86206211 87.67390555 138.90508617 74.0234375 134.93359375 C72.91895767 134.61250641 71.81447784 134.29141907 70.67652893 133.96060181 C64.3415295 132.11586863 58.01560167 130.24346152 51.69921875 128.3359375 C51.75722656 129.30273438 51.81523438 130.26953125 51.875 131.265625 C52.20205226 140.70341892 51.47598205 147.76502249 45.125 155.171875 C38.56956936 161.43697189 30.36920469 162.80274602 21.60546875 162.734375 C20.77390259 162.73724518 19.94233643 162.74011536 19.08557129 162.74307251 C17.34105746 162.74509873 15.59652014 162.73967076 13.85205078 162.72705078 C11.20553022 162.71097584 8.56053645 162.72694842 5.9140625 162.74609375 C4.20702793 162.74411106 2.4999943 162.74026686 0.79296875 162.734375 C0.01457642 162.74044769 -0.76381592 162.74652039 -1.5657959 162.7527771 C-9.54192786 162.65235356 -17.11789562 160.53518223 -23.30078125 155.3359375 C-27.1644595 150.16342516 -29.41265569 145.75461438 -29.46141052 139.22105408 C-29.47145615 138.16278412 -29.48150177 137.10451416 -29.49185181 136.01417542 C-29.4976828 134.8531279 -29.50351379 133.69208038 -29.50952148 132.49584961 C-29.51930527 131.272771 -29.52908905 130.04969238 -29.53916931 128.78955078 C-29.5691493 124.73080396 -29.590825 120.67209239 -29.609375 116.61328125 C-29.61267232 115.92170024 -29.61596964 115.23011923 -29.61936688 114.51758122 C-29.65015701 107.98888417 -29.67685189 101.46018236 -29.69378567 94.93143368 C-29.71566088 86.59651971 -29.7575635 78.26225248 -29.82722324 69.92759699 C-29.87459433 64.05906741 -29.89873691 58.19071144 -29.90598255 52.32199675 C-29.91092094 48.8214932 -29.92582456 45.32171878 -29.96572685 41.82142448 C-30.00974905 37.90802435 -30.00566731 33.99544268 -29.99780273 30.08178711 C-30.01780334 28.93490921 -30.03780396 27.78803131 -30.05841064 26.60639954 C-29.98821443 18.79963241 -28.2033754 13.47251862 -23.30078125 7.3359375 C-16.52471164 0.97516976 -8.96737118 0.02406559 0 0 Z M-12.30078125 21.3359375 C-13.28271013 24.26239811 -13.4281823 26.9629307 -13.43449402 30.03526306 C-13.438759 30.97592117 -13.44302399 31.91657928 -13.44741821 32.88574219 C-13.44696503 33.91078857 -13.44651184 34.93583496 -13.44604492 35.99194336 C-13.44940353 37.0768959 -13.45276215 38.16184845 -13.45622253 39.27967834 C-13.46573003 42.87005759 -13.46767547 46.4603902 -13.46875 50.05078125 C-13.47196243 52.54415405 -13.4753265 55.03752665 -13.47883606 57.53089905 C-13.48482662 62.75880232 -13.4867188 67.98669373 -13.48608398 73.21459961 C-13.48554953 78.58539793 -13.49259977 83.95612443 -13.5065918 89.3269043 C-13.52323918 95.80892433 -13.5301404 102.29087974 -13.52947426 108.77292061 C-13.53065553 111.24448575 -13.53508553 113.71605154 -13.54280663 116.1876049 C-13.55258851 119.64199139 -13.54973559 123.09614702 -13.54370117 126.55053711 C-13.54932068 127.57355927 -13.55494019 128.59658142 -13.56072998 129.65060425 C-13.55653549 130.59408218 -13.552341 131.53756012 -13.54801941 132.5096283 C-13.54856418 133.32575057 -13.54910894 134.14187284 -13.54967022 134.9827261 C-13.13760054 138.87878896 -12.19182738 141.58705782 -9.17382812 144.12353516 C-5.52477195 145.66340709 -2.22591789 145.76703166 1.66796875 145.734375 C2.42589722 145.73724518 3.18382568 145.74011536 3.96472168 145.74307251 C5.56161245 145.74510716 7.15852849 145.73961927 8.75537109 145.72705078 C11.19165072 145.7109874 13.62627162 145.72691859 16.0625 145.74609375 C17.61849322 145.74411121 19.17448542 145.74026731 20.73046875 145.734375 C21.45455933 145.74044769 22.1786499 145.74652039 22.92468262 145.7527771 C27.34542605 145.69167792 30.18427017 145.06027206 33.69921875 142.3359375 C34.91093598 139.91250304 34.83560565 138.35800842 34.8531189 135.64933777 C34.86171936 134.66094406 34.87031982 133.67255035 34.87918091 132.65420532 C34.88344086 131.56586395 34.88770081 130.47752258 34.89208984 129.35620117 C34.90026733 128.21301926 34.90844482 127.06983734 34.91687012 125.89201355 C34.94175285 122.09598318 34.95824655 118.29999024 34.97265625 114.50390625 C34.98064177 112.56325507 34.98064177 112.56325507 34.9887886 110.58339882 C35.01002327 105.14722766 35.02915341 99.71106872 35.040411 94.27486706 C35.05665003 86.48443858 35.08982635 78.69450888 35.14681184 70.90426844 C35.19018109 64.76613618 35.20615596 58.62819959 35.21254349 52.48992348 C35.21927366 49.87877157 35.23454111 47.26762742 35.2584343 44.65657616 C35.28994304 41.00528136 35.29014337 37.35525166 35.28271484 33.70385742 C35.29912018 32.62158875 35.31552551 31.53932007 35.33242798 30.42425537 C35.28779232 24.37891929 35.28779232 24.37891929 32.4055481 19.16488647 C28.7519801 16.69578956 25.55767176 16.63339291 21.29296875 16.70703125 C20.08948792 16.70341331 20.08948792 16.70341331 18.86169434 16.69972229 C17.17060386 16.70069888 15.47948068 16.71404792 13.78857422 16.73901367 C11.20689802 16.77333541 8.62864535 16.75966282 6.046875 16.74023438 C4.39972508 16.74713321 2.75258396 16.75680595 1.10546875 16.76953125 C-0.04628845 16.76209145 -0.04628845 16.76209145 -1.22131348 16.75450134 C-6.1728042 16.86276959 -8.92045509 17.66108868 -12.30078125 21.3359375 Z M135.60400391 27.54003906 C124.52525754 32.16919994 113.37442697 35.88229149 101.69921875 38.7109375 C100.16056152 39.08690063 100.16056152 39.08690063 98.59082031 39.47045898 C83.1599714 43.05841859 67.54090275 42.74920846 51.69921875 43.3359375 C51.69921875 65.4459375 51.69921875 87.5559375 51.69921875 110.3359375 C65.95691193 114.89066803 65.95691193 114.89066803 80.30175781 119.11816406 C81.10184548 119.34405684 81.90193316 119.56994963 82.72626591 119.80268764 C85.30502433 120.53007088 87.8849183 121.25333072 90.46484375 121.9765625 C92.33041894 122.50205583 94.19591046 123.02784625 96.06132507 123.5539093 C99.99508847 124.66273988 103.92932444 125.76986946 107.86398315 126.8755188 C117.11676679 129.47564767 126.36725633 132.08391795 135.61776543 134.69212532 C137.68575391 135.27516688 139.75377381 135.85809706 141.82182503 136.44091606 C155.41713801 140.27256754 169.00653491 144.12404629 182.5859375 148.01171875 C183.33431759 148.22593098 184.08269768 148.4401432 184.85375595 148.66084671 C191.77322925 150.64182615 198.69171961 152.6262008 205.60874462 154.61571217 C207.47374271 155.15186365 209.33901739 155.6870527 211.20429993 156.22221375 C213.42890755 156.86046918 215.65305794 157.5003216 217.87663269 158.14216614 C218.84409927 158.4195311 219.81156586 158.69689606 220.80834961 158.98266602 C221.63894394 159.22179214 222.46953827 159.46091827 223.32530212 159.70729065 C240.34843187 164.21525727 257.51596088 161.47722766 272.66015625 152.82421875 C278.72256404 149.1924232 284.36107844 144.95929769 290.03515625 140.7578125 C294.63775834 137.35462959 299.3375331 134.11137587 304.07421875 130.8984375 C313.16898034 124.71523103 322.18324416 118.42236432 331.18310547 112.10205078 C335.35213737 109.17571886 339.52590395 106.25615651 343.69921875 103.3359375 C345.36590836 102.16930361 347.03257502 101.00263693 348.69921875 99.8359375 C358.69921875 92.8359375 358.69921875 92.8359375 361.20263672 91.08422852 C362.8587683 89.92448294 364.51405126 88.76352451 366.16845703 87.60131836 C370.48991717 84.56794479 374.82683732 81.56092429 379.19140625 78.58984375 C380.09246094 77.97173828 380.99351562 77.35363281 381.921875 76.71679688 C383.63520935 75.54219137 385.35364148 74.37497184 387.078125 73.21679688 C393.29347069 68.93796798 398.5897497 64.35224299 401.69921875 57.3359375 C402.67123124 50.74671598 402.13388942 45.50230004 398.19921875 40.05859375 C394.57587803 35.89741339 391.03737356 32.72474089 385.3515625 32.0625 C384.45566406 32.02898437 383.55976563 31.99546875 382.63671875 31.9609375 C381.75886719 31.91195313 380.88101562 31.86296875 379.9765625 31.8125 C371.15997078 33.22063265 363.08054554 39.38754634 355.57421875 43.9609375 C353.35461674 45.30282807 351.13454138 46.64393592 348.9140625 47.984375 C348.3338887 48.33508057 347.7537149 48.68578613 347.15596008 49.04711914 C340.83771884 52.86367932 334.49091603 56.6317374 328.14160156 60.39630127 C326.13243077 61.58848186 324.12465264 62.78297726 322.1171875 63.97802734 C315.76296734 67.75790949 309.39949055 71.51923937 303.00093079 75.22369385 C300.06131506 76.92701324 297.12727577 78.6398106 294.19363403 80.35339355 C292.79769057 81.16520315 291.39903972 81.97237775 289.99752808 82.77453613 C282.77312218 86.91087892 276.83916679 90.63165745 271.69921875 97.3359375 C269.03125 99.296875 269.03125 99.296875 266.51171875 100.7109375 C265.67253906 101.19304687 264.83335937 101.67515625 263.96875 102.171875 C252.85670109 107.87134243 237.72482776 103.40558974 226.078125 101.16015625 C224.321448 100.83016508 222.56460336 100.50106516 220.80760193 100.17280579 C217.15280917 99.48717434 213.49978813 98.79297686 209.84790039 98.09204102 C205.18153294 97.19680484 200.5118956 96.32023442 195.8408823 95.44960308 C192.22364101 94.77383042 188.60798552 94.08987559 184.99278069 93.40329933 C183.27129286 93.07705451 181.54939931 92.75294268 179.82708931 92.43106651 C177.42160176 91.97990838 175.01838611 91.51814448 172.61547852 91.0534668 C171.91458099 90.92399155 171.21368347 90.7945163 170.49154663 90.66111755 C165.86183333 89.75032659 161.90737638 88.4177769 157.69921875 86.3359375 C156.17429877 83.28609754 156.46359327 80.6936006 156.69921875 77.3359375 C157.76171875 75.4609375 157.76171875 75.4609375 159.69921875 74.3359375 C164.99447566 73.2344696 169.45673818 73.53618493 174.69482422 74.59936523 C175.84510101 74.81860153 175.84510101 74.81860153 177.01861572 75.04226685 C178.67335199 75.35920543 180.32710083 75.68133525 181.97991562 76.00814629 C184.60225181 76.52661841 187.22692051 77.03132339 189.85256958 77.5327301 C194.48362791 78.41940442 199.11226754 79.31804581 203.74023438 80.22070312 C211.13900657 81.66374415 218.53954969 83.09715578 225.94333267 84.51426888 C228.51761654 85.01013327 231.0897139 85.51635335 233.66183472 86.02330017 C235.25607776 86.33035613 236.85040348 86.63698328 238.44482422 86.94311523 C239.1495285 87.08494736 239.85423279 87.22677948 240.58029175 87.37290955 C249.90521729 89.17412834 249.90521729 89.17412834 258.63671875 86.5859375 C261.81633027 83.11727038 262.74891814 81.7026708 262.57421875 76.8984375 C261.49701008 72.51265933 259.92548828 69.72623594 256.00073242 67.27523804 C253.89568349 66.1976833 251.76607335 65.21526813 249.60546875 64.25390625 C248.39512215 63.69687263 248.39512215 63.69687263 247.1603241 63.12858582 C244.51227399 61.91403531 241.85608201 60.71857041 239.19921875 59.5234375 C237.35088166 58.68080752 235.50298604 57.83720853 233.65551758 56.99267578 C228.0127298 54.41959317 222.35798205 51.87366332 216.69921875 49.3359375 C215.83762146 48.94935974 214.97602417 48.56278198 214.08831787 48.16448975 C204.90947225 44.04922259 195.71572406 39.96839535 186.5118103 35.9095459 C179.75973358 32.92848481 173.03337325 29.8904447 166.3269043 26.80810547 C155.0136282 21.6596886 146.93652437 22.76877469 135.60400391 27.54003906 Z " fill="#000000" transform="translate(61.30078125,297.6640625)"/>
<path d="M0 0 C23.71629507 22.65188912 36.76036998 55.78749035 38.03515625 88.34765625 C38.08671875 89.12753906 38.13828125 89.90742188 38.19140625 90.7109375 C39.33557226 121.36505191 27.14934412 153.25144231 6.47265625 175.72265625 C4.67627878 177.61403743 2.85666013 179.48020939 1.03515625 181.34765625 C0.33132813 182.12496094 -0.3725 182.90226563 -1.09765625 183.703125 C-16.08932022 199.8063382 -37.10549354 209.46486146 -57.96484375 215.34765625 C-59.16625 215.68925781 -60.36765625 216.03085937 -61.60546875 216.3828125 C-93.28269987 223.7535968 -128.42063839 217.30994902 -155.96484375 200.34765625 C-185.69872678 181.41228827 -206.00365923 152.45054857 -213.71484375 117.97265625 C-214.1494351 115.76778038 -214.56844674 113.55971788 -214.96484375 111.34765625 C-215.09761719 110.60773438 -215.23039063 109.8678125 -215.3671875 109.10546875 C-219.96585396 76.72581721 -210.35936275 40.53802551 -190.96484375 14.34765625 C-187.23034105 9.7550125 -183.120567 5.5559097 -178.96484375 1.34765625 C-178.33578125 0.63480469 -177.70671875 -0.07804687 -177.05859375 -0.8125 C-159.85078824 -19.85841201 -130.99147314 -30.87950697 -105.96484375 -33.65234375 C-104.54171875 -33.83410156 -104.54171875 -33.83410156 -103.08984375 -34.01953125 C-64.72786875 -38.03188068 -28.48528535 -25.48288374 0 0 Z M-164.96484375 12.34765625 C-165.70089844 13.0025 -166.43695313 13.65734375 -167.1953125 14.33203125 C-186.70189733 32.55375121 -197.36517676 60.10571112 -199.25 86.3125 C-199.87337442 113.44283906 -191.55055657 141.47404858 -173.96484375 162.34765625 C-172.88396484 163.65476563 -172.88396484 163.65476563 -171.78125 164.98828125 C-152.72500578 187.1356453 -125.76098967 198.93222223 -96.96484375 201.34765625 C-68.24994275 202.91941925 -38.69244173 194.66969874 -16.96484375 175.34765625 C-15.85109375 174.44660156 -15.85109375 174.44660156 -14.71484375 173.52734375 C6.73467575 155.72722167 17.86937407 127.64263338 20.5703125 100.48046875 C22.69091096 74.04509905 15.43916251 46.85308143 -1.02734375 25.78515625 C-2.32552608 24.29340797 -3.637892 22.81387224 -4.96484375 21.34765625 C-5.62613281 20.54585937 -6.28742188 19.7440625 -6.96875 18.91796875 C-24.36907694 -1.65479349 -50.32356738 -14.59913459 -76.96484375 -17.65234375 C-110.47373739 -19.56939635 -140.15895649 -10.57119947 -164.96484375 12.34765625 Z " fill="#000000" transform="translate(398.96484375,70.65234375)"/>
<path d="M0 0 C2.23413013 3.35119519 2.23847762 4.4177755 2.1953125 8.32421875 C2.18886719 9.35224609 2.18242187 10.38027344 2.17578125 11.43945312 C2.15902344 12.51130859 2.14226562 13.58316406 2.125 14.6875 C2.11597656 15.77095703 2.10695313 16.85441406 2.09765625 17.97070312 C2.0740734 20.6473571 2.04116126 23.32356797 2 26 C2.88816406 26.11085938 3.77632813 26.22171875 4.69140625 26.3359375 C12.63590444 27.93046488 20.15642888 33.57340808 25 40 C29.89851995 48.33413349 33.20392768 56.20923522 32 66 C30.5625 69.0625 30.5625 69.0625 28 71 C24.84858979 71.69967089 22.15196865 71.69656766 19 71 C14.69588703 67.68914387 14.42172976 63.55084726 13.54296875 58.49609375 C12.19013521 52.27695251 8.88664698 48.44491623 3.68359375 44.9453125 C-0.96094308 42.33747511 -5.83327289 42.45573053 -11 43 C-17.85247615 45.07471164 -21.75424907 49.15014126 -25.3125 55.25 C-26.99515455 61.98061819 -26.75142109 68.17049845 -23.265625 74.24609375 C-19.78566721 79.06862785 -15.69304655 81.37538212 -10 83 C-7.73508858 83.33455901 -5.46326342 83.62469157 -3.1875 83.875 C7.92689111 85.3943174 17.12290041 89.89024713 24.25 98.75 C30.63627533 107.95528515 33.01808866 118.03149834 31.59375 129.1796875 C29.20432526 140.3587818 23.18757034 148.31675918 14 155 C10.03829002 157.22181208 6.58371686 159 2 159 C2.02618408 159.6705542 2.05236816 160.3411084 2.0793457 161.03198242 C2.18357238 164.08358128 2.24840623 167.13480542 2.3125 170.1875 C2.3753418 171.77014648 2.3753418 171.77014648 2.43945312 173.38476562 C2.56313991 181.22650799 2.56313991 181.22650799 -0.33203125 185.203125 C-3.61546522 187.41451538 -5.11705604 187.72805199 -9 187 C-12.33761045 184.84909549 -13.73470933 183.79587201 -15 180 C-15.08143855 178.37280518 -15.1075302 176.74248281 -15.09765625 175.11328125 C-15.09443359 174.17548828 -15.09121094 173.23769531 -15.08789062 172.27148438 C-15.07951172 171.29501953 -15.07113281 170.31855469 -15.0625 169.3125 C-15.05798828 168.32443359 -15.05347656 167.33636719 -15.04882812 166.31835938 C-15.03704303 163.87884526 -15.02059011 161.43945311 -15 159 C-15.8765625 158.89945313 -16.753125 158.79890625 -17.65625 158.6953125 C-25.10231593 157.14694832 -32.06829891 151.92391125 -36.72265625 145.9609375 C-42.29423087 137.40763334 -45.32431365 129.29006927 -44 119 C-41.9375 115.8125 -41.9375 115.8125 -39 114 C-35.4375 113.4375 -35.4375 113.4375 -32 114 C-28.30936217 116.90221428 -27.37802321 119.33469575 -26.5 123.875 C-24.85632872 131.13896662 -22.23809397 135.73983827 -16 140 C-11.32866792 142.66933262 -6.23058128 142.64486618 -1 142 C5.10844881 140.06826832 8.89129348 136.9274659 11.9375 131.25390625 C14.74114278 125.03332383 14.54542341 119.11873308 12.16015625 112.76171875 C9.00327011 106.79621506 4.33681492 103.98850572 -2 102 C-4.45062013 101.63186956 -6.91056937 101.32257823 -9.375 101.0625 C-19.18625694 100.0109396 -28.05704404 96.10826444 -35 89 C-43.38412607 78.42151007 -45.14061486 68.2153998 -44 55 C-42.16050974 45.7447031 -37.03464255 37.80552793 -29.50390625 32.11328125 C-24.79448092 29.15286624 -20.39400688 27.42607771 -15 26 C-15.01571045 25.39003174 -15.0314209 24.78006348 -15.04760742 24.15161133 C-15.11019813 21.3720029 -15.14906622 18.59254308 -15.1875 15.8125 C-15.21263672 14.85279297 -15.23777344 13.89308594 -15.26367188 12.90429688 C-15.35668219 3.94430282 -15.35668219 3.94430282 -12 0 C-7.67364668 -2.76405907 -4.62047599 -1.83075464 0 0 Z " fill="#000000" transform="translate(316,70)"/>
</svg>
