<svg width="56" height="56" viewBox="0 0 56 56" fill="none" xmlns="http://www.w3.org/2000/svg">
<rect width="56" height="56" rx="16" fill="url(#paint0_linear_170_92)"/>
<path d="M22.1667 17.5H18.6667C18.0223 17.5 17.5 18.0223 17.5 18.6667V22.1667C17.5 22.811 18.0223 23.3333 18.6667 23.3333H22.1667C22.811 23.3333 23.3333 22.811 23.3333 22.1667V18.6667C23.3333 18.0223 22.811 17.5 22.1667 17.5Z" stroke="white" stroke-width="2.33333" stroke-linecap="round" stroke-linejoin="round"/>
<path d="M37.3334 17.5H33.8334C33.189 17.5 32.6667 18.0223 32.6667 18.6667V22.1667C32.6667 22.811 33.189 23.3333 33.8334 23.3333H37.3334C37.9777 23.3333 38.5 22.811 38.5 22.1667V18.6667C38.5 18.0223 37.9777 17.5 37.3334 17.5Z" stroke="white" stroke-width="2.33333" stroke-linecap="round" stroke-linejoin="round"/>
<path d="M22.1667 32.667H18.6667C18.0223 32.667 17.5 33.1893 17.5 33.8337V37.3337C17.5 37.978 18.0223 38.5003 18.6667 38.5003H22.1667C22.811 38.5003 23.3333 37.978 23.3333 37.3337V33.8337C23.3333 33.1893 22.811 32.667 22.1667 32.667Z" stroke="white" stroke-width="2.33333" stroke-linecap="round" stroke-linejoin="round"/>
<path d="M38.5 32.667H35C34.3812 32.667 33.7877 32.9128 33.3501 33.3504C32.9125 33.788 32.6667 34.3815 32.6667 35.0003V38.5003" stroke="white" stroke-width="2.33333" stroke-linecap="round" stroke-linejoin="round"/>
<path d="M38.5 38.5V38.5117" stroke="white" stroke-width="2.33333" stroke-linecap="round" stroke-linejoin="round"/>
<path d="M28 22.167V25.667C28 26.2858 27.7542 26.8793 27.3166 27.3169C26.879 27.7545 26.2855 28.0003 25.6667 28.0003H22.1667" stroke="white" stroke-width="2.33333" stroke-linecap="round" stroke-linejoin="round"/>
<path d="M17.5 28H17.5117" stroke="white" stroke-width="2.33333" stroke-linecap="round" stroke-linejoin="round"/>
<path d="M28 17.5H28.0117" stroke="white" stroke-width="2.33333" stroke-linecap="round" stroke-linejoin="round"/>
<path d="M28 32.667V32.6787" stroke="white" stroke-width="2.33333" stroke-linecap="round" stroke-linejoin="round"/>
<path d="M32.6667 28H33.8334" stroke="white" stroke-width="2.33333" stroke-linecap="round" stroke-linejoin="round"/>
<path d="M38.5 28V28.0117" stroke="white" stroke-width="2.33333" stroke-linecap="round" stroke-linejoin="round"/>
<path d="M28 38.4997V37.333" stroke="white" stroke-width="2.33333" stroke-linecap="round" stroke-linejoin="round"/>
<defs>
<linearGradient id="paint0_linear_170_92" x1="0" y1="0" x2="56" y2="56" gradientUnits="userSpaceOnUse">
<stop stop-color="#AD46FF"/>
<stop offset="1" stop-color="#F6339A"/>
</linearGradient>
</defs>
</svg>
