<svg width="56" height="56" viewBox="0 0 56 56" fill="none" xmlns="http://www.w3.org/2000/svg">
<rect width="56" height="56" rx="16" fill="url(#paint0_linear_170_80)"/>
<path d="M30.9587 39.3C31.003 39.4105 31.08 39.5047 31.1795 39.5701C31.2789 39.6355 31.396 39.669 31.515 39.6659C31.634 39.6629 31.7492 39.6235 31.8451 39.5531C31.9411 39.4827 32.0132 39.3846 32.0518 39.272L39.6352 17.1053C39.6725 17.002 39.6796 16.8901 39.6557 16.7828C39.6318 16.6755 39.5778 16.5773 39.5001 16.4996C39.4224 16.4218 39.3241 16.3679 39.2169 16.3439C39.1096 16.32 38.9977 16.3272 38.8943 16.3645L16.7277 23.9478C16.6151 23.9864 16.517 24.0586 16.4466 24.1545C16.3762 24.2505 16.3368 24.3657 16.3337 24.4847C16.3307 24.6037 16.3641 24.7207 16.4295 24.8202C16.4949 24.9196 16.5892 24.9967 16.6997 25.041L25.9513 28.751C26.2438 28.8681 26.5095 29.0432 26.7325 29.2658C26.9555 29.4883 27.131 29.7537 27.2487 30.046L30.9587 39.3Z" stroke="white" stroke-width="2.33333" stroke-linecap="round" stroke-linejoin="round"/>
<path d="M39.4963 16.5049L26.733 29.267" stroke="white" stroke-width="2.33333" stroke-linecap="round" stroke-linejoin="round"/>
<defs>
<linearGradient id="paint0_linear_170_80" x1="0" y1="0" x2="56" y2="56" gradientUnits="userSpaceOnUse">
<stop stop-color="#2B7FFF"/>
<stop offset="1" stop-color="#00B8DB"/>
</linearGradient>
</defs>
</svg>
